<?xml version="1.0" encoding="UTF-8"?>
<svg width="512" height="512" version="1.1" viewBox="0 0 512 512" xmlns="http://www.w3.org/2000/svg">
 <path d="m235 473.94c-265.13-32.715-241.55-429.41 25.5-428.92l9 0.01635-10.5 3.5102c-109.15 36.489-155.02 169.68-91.71 266.28 68.63 104.71 219.1 108.72 293.9 7.8383 6.5974-8.8978 6.7638-8.7843 3.2824 2.2362-30.624 96.943-129.78 161.34-229.47 149.04zm72.383-269.63 5.056-29.685-21.412-20.789c-11.776-11.434-21.213-20.952-20.969-21.152 0.24327-0.19929 12.142-2.0332 26.442-4.0754 14.3-2.0422 27.516-3.9757 29.368-4.2968 3.2961-0.57122 3.6552-1.1651 16.726-27.656l13.358-27.072 26.368 54.25 8.5898 1.2094c4.7244 0.66516 18.193 2.6196 29.931 4.3432l21.341 3.1338-43.037 42.397 4.9609 28.689c2.7285 15.779 4.8335 29.054 4.6777 29.501-0.15577 0.44646-11.758-5.23-25.783-12.614-30.653-16.139-23.384-16.139-54.182 0.00196-14.167 7.425-25.923 13.5-26.125 13.5-0.20169 0 1.9085-13.358 4.6893-29.685z" fill="#1a1a1a"/>
 <style>@media (prefers-color-scheme: light) { :root { filter: none; } }
@media (prefers-color-scheme: dark) { :root { filter: none; } }</style>
</svg>
