<?xml version="1.0" encoding="UTF-8"?>
<svg width="403.65" height="398.3" version="1.1" viewBox="0 0 403.65 398.3" xmlns="http://www.w3.org/2000/svg">
 <g transform="translate(-69.348 -51.7)">
  <path d="m326.53 238.55c-0.39 0.17-0.75 0.32-1.08 0.47-1.08 0.48-1.86 0.83-2.62 0.8-2.16-0.07-4.22-3.1-12.83-14.32-2.95-3.85-6.72-8.7-8.38-10.78l-3.01-3.79 8.2-8.23c5.28-5.32 8.19-9.02 8.19-10.45 0-1.4 1.02-2.73 2.83-3.66 3.17-1.64 10.55-10.16 9.82-11.34-0.66-1.08 2.24-7.7 3.02-6.91 1.24 1.24 3.31-1.58 2.76-3.75-0.35-1.42 0.15-2.8 1.45-3.98 1.94-1.76 2.26-1.58 13.8 7.62 18.33 14.61 19.34 15.03 19.06 7.93l-0.15-3.79-5.27 0.44c-4.96 0.41-5.49 0.22-8.8-3.09-2.95-2.95-3.52-4.22-3.52-7.9 0-2.41 0.68-5.35 1.51-6.53 1.1-1.57 1.2-2.35 0.36-2.87-0.68-0.42-2.57 1-4.64 3.49l-3.5 4.21-2.86-2.75c-1.58-1.51-2.87-3.04-2.87-3.41 0-1.12 11.41-9.7 13.42-10.09 1.3-0.25 1.94-1.31 2.07-3.37 0.09-1.65 0.52-3.79 0.95-4.75 0.69-1.55 0.13-1.75-4.93-1.75-4.68 0-8.05-0.99-18.69-5.5-7.13-3.03-14.06-5.77-15.4-6.11-0.16-0.04-0.31-0.08-0.45-0.12-0.51-0.14-0.9-0.25-1.19-0.12-1.02 0.44-0.78 3.73 0.28 18.42 0.08 1.18 0.17 2.43 0.26 3.75 0.67 9.25 1.01 17.01 0.78 17.25-0.24 0.24-7.57 0.43-16.3 0.43-12.37 0-15.98-0.3-16.38-1.35-0.28-0.74 1.12-11.11 3.12-23.05 2-11.93 3.38-22.35 3.08-23.15-1.02-2.64-3.04-1.51-11.97 6.73l-8.84 8.16-7.66-2.48-7.65-2.48-0.27-24.19c-0.15-13.3-0.61-24.19-1.02-24.19-1.1 0-7.28 39.44-7.24 46.2 0.03 5.58 1.75 15.8 2.65 15.8 0.26 0 1.83-1.01 3.5-2.25 4.49-3.32 14.13-3.19 19.22 0.25 10.28 6.96 9.9 23.33-0.69 29.42-6.86 3.94-10.3 4.12-20.28 1.06-1.82-0.56-2.06-0.31-1.67 1.71 0.62 3.26-2.77 6.26-6.13 5.42-5.06-1.27-5.79-8.01-1-9.22 1.33-0.33 2.43-0.79 2.43-1.02s-1.54-2.65-3.41-5.38c-1.88-2.73-4.47-8.01-5.75-11.73-2.09-6.04-2.34-8.55-2.34-23.51 0-15.78-0.62-20.3-1.9-14-3.13 15.32-4.93 29.45-5.01 39.32l-0.09 11.56-13-4.93c-7.15-2.72-13.4-5.31-13.89-5.76-1.17-1.08 4.37-16.38 10.31-28.48 2.56-5.2 4.41-9.45 4.11-9.43-1.28 0.06-6.91 5.83-9.51 9.76-4.58 6.9-14.02 14.09-20.65 15.72-2.3 0.56-3.01 0.07-5.75-3.98-1.71-2.55-3.12-4.99-3.12-5.42 0-0.44 1.69-1.3 3.75-1.92 5.18-1.56 11.15-6.76 13.36-11.62 4.58-10.08 0.96-26.28-6.79-30.41-3.13-1.66-14.97-1.53-15.62 0.18-0.85 2.23 0.58 3.33 5.09 3.92 5.56 0.73 9.03 3.07 10.79 7.29 2.84 6.78 1.26 12.89-4.62 17.83-3.95 3.32-10.25 3.52-16.25 0.5-8.82-4.43-11.71-9.34-11.71-19.89 0-7.79 1.43-11.61 5.56-14.86l2.6-2.05-16.66-0.58-0.62-6.44 13.81-0.28c13.05-0.26 13.81-0.39 13.81-2.28 0-1.85-1-2.07-13.5-3l-13.5-1-0.6-12.8 8.3 0.64c4.56 0.36 12.64 0.65 17.94 0.65 12.72 0.01 14.16 1.04 14.86 10.67l0.5 6.84h51.92l0.85-4c0.46-2.2 1.05-5.01 1.31-6.25 0.65-3.17 1.82-2.86 8.32 2.25 6.23 4.9 7.1 5.26 7.1 3 0-1.72 2.04-1.83 15.79-0.85 8.87 0.63 9.11 0.71 9.41 3.25l0.3 2.6 29.4 0.27c25.38 0.22 29.64 0.05 31.12-1.29 0.94-0.85 4.13-1.77 7.09-2.05 2.97-0.28 6.83-0.68 8.58-0.9 2.66-0.32 3.24-0.02 3.5 1.79 0.28 1.96 1 2.21 7.12 2.48l6.81 0.29-0.31 3.21-0.31 3.2-6.75 0.3-6.75 0.29v26.12c0 14.37 0.34 25.8 0.75 25.4 0.41-0.39 2.1-3.5 3.75-6.9 1.87-3.86 3.02-6.28 4.92-7.31 3.15-1.73 8.38 0.34 22.46 5.92l0.48 0.19c11.41 4.52 19.55 8.27 19.29 8.9-3.12 7.81-3.99 9.59-4.71 9.59-0.46 0-7.8-2.48-16.31-5.5-8.5-3.02-16.3-5.5-17.33-5.5-2.25 0-8.52 10.27-7.65 12.53 0.31 0.82 1.64 1.75 2.94 2.08 1.81 0.46 2.95-0.1 4.87-2.38 6.7-7.96 17.71-6.28 20.96 3.19 1.65 4.82 0.68 8.82-3.08 12.74-3.46 3.61-7.92 4.46-12.8 2.42-4.76-1.99-4.83-1.98-3.58 0.35 1.52 2.84 1.28 5.15-0.96 9.33-2.41 4.5-2.53 5.41-0.43 3.31 2.15-2.15 8.7-2.04 10.7 0.18 3.82 4.25 2.86 12.43-1.91 16.18-5.8 4.56-13.38 3.54-20.98-2.82-1.72-1.43-6.82-5.48-11.33-8.99-7.28-5.67-8.38-6.22-9.7-4.89-1.33 1.32-0.9 1.93 3.83 5.35 11.11 8.05 28.35 20.74 29.16 21.46 0.78 0.69 0.17 2.3-2.2 5.85-0.73 1.09-2.68 0.11-9.37-4.75-9.06-6.58-10.43-7.24-8.81-4.21 1.73 3.24 1.2 6.8-1.32 8.78l-2.36 1.86 5.32 3.96c2.92 2.19 5.33 4.22 5.36 4.52 0.02 0.3-1.74 2.28-3.91 4.4l-3.96 3.86-10.68 0.46c-9.65 0.4-11.06 0.23-14.61-1.76-2.16-1.22-4.16-1.98-4.45-1.7-0.28 0.29 2 3.82 5.07 7.85s5.58 7.69 5.58 8.13c0 0.45-1.56 1.46-3.47 2.26zm-92.85-8.62c-5.91 2.25-15.09 0.72-19.43-3.23-2.2-2.01-2.25-2.5-2.25-24.34 0-22.1-0.02-22.3-2.25-23.47-1.24-0.65-3.96-2.52-6.05-4.16-3.38-2.65-3.73-3.33-3.14-6.11 0.37-1.71 0.81-3.28 0.99-3.47 0.17-0.19 2.33 1.05 4.81 2.75 5.25 3.62 6.64 3.85 6.64 1.1 0-2.35 1.34-2.47 9.4-0.85l5.72 1.15-0.62 3.72c-0.54 3.16-0.33 3.79 1.38 4.24 2.74 0.72 3.08 0.1 1.82-3.25-1.21-3.2 0.02-10.1 1.91-10.72 0.75-0.24 0.95 1.25 0.62 4.66-0.45 4.64-0.24 5.24 2.75 8.03 4.83 4.52 12.23 3.73 15.08-1.59 0.7-1.31 1.87-2.39 2.59-2.39 0.96 0 0.78 0.95-0.67 3.53-2.26 4.04-2.36 4.47-0.98 4.47 0.55 0 1-0.65 1-1.45 0-0.83 1.62-1.9 3.75-2.5 5.29-1.47 5.92-1.34 5.83 1.2-0.1 2.9 2.81 3.02 3.22 0.12 0.27-1.85 1.19-2.21 7.34-2.82 5.98-0.58 7.22-0.43 8.28 1.01 1.16 1.58 1.9 1.53 11.16-0.85 5.45-1.41 9.99-2.47 10.09-2.37 0.1 0.09 0.32 1.51 0.5 3.15 0.3 2.7-0.06 3.11-3.92 4.46-2.34 0.82-4.25 1.8-4.25 2.17s1.69 1.08 3.75 1.57l3.75 0.88 0.56 21.02-13.13 9.45 1.3-21.54-7.39 7.25c-4.06 3.99-8 7.25-8.75 7.25-0.74 0-2.87-0.94-4.72-2.08-3.37-2.08-3.37-2.09-3.37-10 0-7.82-0.32-8.5-3.42-7.31-1.34 0.51-1.58 2.87-1.58 15.8v15.19l-4.75 1.71c-2.61 0.93-5.15 1.7-5.64 1.69-0.51 0-0.58-7.16-0.17-16.85l0.71-16.84-8.42-0.65c-4.63-0.36-9.95-0.91-11.82-1.23l-3.41-0.58 2.76 2.54c1.52 1.39 6.02 4.44 10 6.76 3.98 2.33 7.37 4.31 7.53 4.41s-0.37 3.34-1.17 7.19c-2.45 11.74-7.47 19.73-13.94 22.18zm-107.82 104.82c-7.13 6.46-13.28 11.86-13.66 11.99-0.39 0.13-1.77-1.41-3.07-3.42l-2.37-3.66 6.62-5.92c5.95-5.31 6.62-6.3 6.62-9.69 0-5.03-3.15-9.05-7.1-9.05-4.06 0-4.63 2.34-1.5 6.06 3.4 4.05 3.42 8.57 0.06 12.2-4.8 5.17-13.22 2.54-15.03-4.69-0.84-3.34 1.11-11.11 3.7-14.75 3.17-4.45 1.27-3.36-7.29 4.2-4.38 3.86-8.39 6.76-8.91 6.44-0.78-0.49-4.82-6.43-8.26-12.14-0.47-0.8 3.42-3.21 11.78-7.29 6.86-3.36 12.71-6.49 13-6.95s-2.93-1.35-7.15-1.98-7.85-1.31-8.05-1.52c-0.21-0.21-0.09-1.93 0.27-3.84 0.56-3 1.88-4.27 10.06-9.74 8.53-5.7 10.99-8 8.55-8-0.84 0-16.79 11.22-24.35 17.14l-3.73 2.91-3.74-5.63c-3.35-5.06-3.57-5.75-2.09-6.78 0.91-0.63 6.69-4.29 12.84-8.14 15.51-9.71 16.5-10.58 15.03-13.33-0.65-1.22-0.91-2.65-0.58-3.19 1.03-1.67 3.32-1.08 3.99 1.02 0.74 2.34 2.07 2.46 5.5 0.5 3.26-1.86 7.88-1.87 12.32-0.01 3.74 1.56 13.31 12.3 22.18 24.88 3.71 5.26 4.61 7.23 3.85 8.44-0.55 0.86-1.48 1.73-2.07 1.93s-6.34-5.52-12.77-12.69c-11.02-12.28-11.93-13.05-15.42-13.05-2.04 0-4.46 0.56-5.38 1.25-1.51 1.13-1.13 2.11 3.9 10.25 12.02 19.46 22.13 33 24.63 33 1.53 0 8.76 9.43 8.76 11.43 0 0.42-0.8 1.49-1.78 2.37-1.65 1.5-1.88 1.47-3.01-0.34-0.68-1.08-1.71-1.96-2.3-1.96s-6.91 5.29-14.05 11.75zm298.5 71.19c-0.34 1.7-0.97 3.32-1.4 3.58-0.43 0.27-2.59-4.91-4.8-11.51l-4.01-12 2.15-1.5c6.66-4.67 24.34-9.61 32.7-9.15 1.38 0.08 2.67-0.23 2.88-0.68 0.68-1.45-9.97-19.69-12.42-21.3-5.26-3.44-9.56 2.14-5.56 7.22 3.09 3.93 2.77 8.89-0.82 12.48-6.31 6.31-14.29 2.07-16.25-8.64-2-10.89 0.86-19.61 7.77-23.64 4.98-2.91 13.77-4.3 18.4-2.92 3.42 1.03 4.59 2.27 9.29 9.9 5.82 9.44 20.71 36.37 20.71 37.46 0 0.37-2.08 1.59-4.63 2.71-3.48 1.54-6.75 2.05-13.25 2.06-17.44 0.03-28.75 5.88-30.76 15.93zm-137.98-144.2c-4.62 2.54-11.38 3.55-15.88 2.37-9.34-2.45-25.11-15.41-33.4-27.46l-2.97-4.33 6.3-1.16c9.69-1.78 11.46-1.58 12.62 1.48 4.73 12.44 22.65 19.69 30.48 12.33 2.87-2.69 3.42-8.94 0.97-10.97-1.29-1.07-1.42-0.84-0.96 1.63 0.74 3.97-2.52 8.99-6.39 9.84-3.48 0.76-8.53-1.44-10.12-4.41-1.79-3.35-1.24-13.22 0.92-16.49 5.61-8.52 18.19-7.05 25.05 2.92 1.7 2.48 3.45 4.51 3.88 4.51 2.22 0 1.63-1.82-2.42-7.5-2.45-3.44-4.45-6.65-4.43-7.13 0.04-1.08 4.94-4.73 5.55-4.12 2.04 2.03 20.13 30.4 19.77 30.99-0.26 0.42-1.73 0.76-3.28 0.76-2.09 0-3.42-0.89-5.19-3.49-1.76-2.58-3.11-3.5-5.16-3.5-3.07-0.01-3.29 0.37-4.2 7.21-0.83 6.17-5.84 13.6-11.14 16.52zm25.37-144.13c0.58 3.78 0.81 1.83 1.03-8.61l0.27-13.5 17.41-17.5h-54.13l-1.3 14.53c-0.71 8-1.12 14.71-0.91 14.92 0.21 0.22 4.66-3.17 9.88-7.52 5.23-4.35 10.09-7.92 10.82-7.92 0.73-0.01 4.67 2.56 8.75 5.71 7.35 5.66 7.43 5.77 7.43 10.36 0 2.55 0.34 6.84 0.75 9.53zm-87.17-17.61c2.59 3.3 5.04 6 5.43 6s1.24-4.84 1.89-10.75 1.43-12.21 1.75-14l0.57-3.25-35.72 0.02 3.25 2.56c4.31 3.4 8.42 10.59 8.55 14.93 0.12 4.16 0.62 4.27 4.52 0.99 1.63-1.38 3.44-2.5 4.01-2.5s3.16 2.7 5.75 6zm107.78 55.62c-3.53 1.48-4.04 1.53-6.36 0.66-7.1-2.67-10.39-9.56-7.48-15.68 2.04-4.3 5.89-6.6 11.03-6.6 5.32 0 10.45 5.28 10.45 10.77 0 4.75-2.9 8.87-7.64 10.85zm-206.61 161.13 0.49 5.14 3.38-2.69c1.86-1.49 3.38-3.04 3.38-3.46s-2.82-4.47-6.27-9-8.29-11.48-10.75-15.45c-2.47-3.96-4.88-7.23-5.38-7.25-1.23-0.06-9.6 5.3-9.6 6.14 0 0.72 0.78 1 7.75 2.8 3.95 1.02 4.25 1.34 4.25 4.48 0 2.78-0.85 4.13-4.75 7.58-2.61 2.3-3.85 3.87-2.75 3.47 1.1-0.39 4.72-0.95 8.05-1.23 5.38-0.46 6.37-0.25 8.88 1.91 2.23 1.91 2.93 3.52 3.32 7.56zm288 59.54c-0.69 0.27-3.62 1.44-6.53 2.6l-5.27 2.1-0.97-2.54c-2.6-6.84-2.51-7.15 2.89-9.89 2.79-1.41 5.71-2.56 6.5-2.56 0.82 0 2.13 2.01 3.04 4.68 0.16 0.49 0.31 0.93 0.45 1.33 0.91 2.64 1.18 3.43 0.9 3.79-0.16 0.21-0.5 0.28-1.01 0.49zm-87.63-185.22c0.7 0.44 2.2 0.29 3.33-0.31 1.13-0.61 4.74-1.36 8.02-1.68l5.98-0.58-5.23-3.75c-2.87-2.06-5.59-3.75-6.03-3.75s-2.28 2.09-4.08 4.64c-2.45 3.49-2.95 4.84-1.99 5.43zm5.38-88.05c4.1 1.74 4.5 1.25 4.5-5.52 0-3.57-0.34-6.5-0.75-6.5s-2.69 2.25-5.06 5.01c-3.74 4.34-4.07 5.08-2.5 5.58 0.99 0.32 2.71 0.96 3.81 1.43zm-104.66 98.98c0.38 6.8 1.4 7.42 5.85 3.58l2.81-2.42-4-3.54c-2.2-1.94-4.23-3.56-4.5-3.58s-0.35 2.66-0.16 5.96zm85.85 10.48c1.55 1.93 3.16 3.52 3.59 3.52 0.72 0-0.13-13.01-0.91-13.91-0.61-0.7-4.29 3.07-4.9 5.02-0.38 1.17 0.43 3.13 2.22 5.37zm9.51-0.68c1.37 1.37 1.5 1.39 4.55 0.57 1.24-0.33 2.25-1.09 2.25-1.69 0-1.26-6.01-7.68-7.2-7.68-1.27 0-0.93 7.47 0.4 8.8zm-39.59-23.52c0.33 0.33 2.37-0.56 4.52-1.98 4.75-3.15 4.42-3.85-1.03-2.21-3.76 1.13-5.03 2.65-3.49 4.19zm53.64 10.78c3.02 2.51 3.75 2.41 3.75-0.56 0-2.11-0.47-2.5-3-2.5-3.59 0-3.73 0.57-0.75 3.06z" fill="#040404"/>
  <path d="m311.75 117.61c-0.41-2.69-0.75-6.98-0.75-9.53 0-2.13-0.02-3.3-0.77-4.5 0.51 0.53 0.84 0.96 0.95 1.23 0.38 0.95 0.71-0.48 0.75-3.29 0.03-2.35 0.08-3.62 1.11-5.3l-0.26 12.78c-0.22 10.44-0.45 12.39-1.03 8.61zm-57.52 54.73c0.21 0.34 0.25 0.93 0.02 1.8-0.52 2.01-0.3 2.09 3.93 1.46 0.22-0.03 0.43-0.06 0.63-0.09-0.6 0.14-1.28 0.33-2.06 0.54-2.13 0.6-3.75 1.67-3.75 2.5 0 0.8-0.45 1.45-1 1.45-1.38 0-1.28-0.43 0.98-4.47 0.97-1.71 1.37-2.71 1.25-3.19zm121.93 34.15c0.42 1.6 0.56 3.12 0.31 3.38-0.26 0.25-0.47-0.11-0.47-0.81s-0.65-1.02-1.45-0.72c-1.03 0.4-1.27 0.07-0.84-1.14 1.21-3.42 1.68-3.56 2.45-0.71zm-81.3-114.48c0.04-0.01 0.07-0.01 0.09-0.01 0.74 0 3.61 1.92 6.73 4.29-3.28-2.41-6.13-4.21-6.82-4.28zm-18.49-14.01-0.95 10.17 0.91-10.17zm41.7 12.46c0.91-0.93 1.96-1.98 3.16-3.19l7.57-7.6zm-64.83 81.63c-0.7 0.29-1.6 1.21-2.18 2.3 0.69-1.3 1.52-2.07 2.18-2.3zm9.18 3.62c0.18 0.31 0.19 0.8 0.16 1.5-0.04 1.3 0.5 2.05 1.15 2.23-0.66-0.17-1.2-0.91-1.15-2.19 0.02-0.68 0-1.19-0.16-1.54z" fill="#897f84"/>
  <path d="m290.5 350.75c-0.24 0.69-1.24 1.18-2.22 1.09s-5.02-0.43-8.98-0.75c-3.96-0.33-7.65-1.04-8.19-1.59-1.01-1.02-0.88-1.96 6.41-44.15 0.15-0.89 0.3-1.75 0.44-2.57 2.85-16.48 3.55-20.51 2.14-21.48-0.46-0.31-1.13-0.31-2.03-0.3h-0.43c-0.23 0-0.44 0-0.64-0.01-0.6-0.01-1.08-0.02-1.51 0.11-1.77 0.57-2.73 3.66-8.34 19.4-9.08 25.48-16.35 45.04-16.98 45.66-0.37 0.37-4.83-1.29-9.92-3.68l-9.25-4.34 3.12-8.32c1.71-4.58 4.75-12.96 6.74-18.63l3.64-10.3-3.27-2.95c-5.2-4.68-6.23-4.04-6.23 3.85v6.8l-3.99 1.06c-4.72 1.26-4.97 1.05-7.99-6.61-2.51-6.36-8.59-15.04-10.54-15.04-2.91 0-9.42 12.22-9.46 17.75-0.02 3.15 0.11 3.25 4.12 3.25 3.74 0 12.89 3.51 12.84 4.93-0.01 0.31-2 4.4-4.42 9.07-4.05 7.84-4.61 8.48-7.15 8.18-6.68-0.76-14.61-6.66-18.03-13.41-3.48-6.88-3.12-15.69 0.99-24.1 3.22-6.58 15.76-22.29 18.39-23.04 3.58-1.02 13.41-2.79 13.67-2.47 0.15 0.19 1.99 3.49 4.09 7.34s3.9 7.12 3.99 7.26c0.1 0.15 2.32-0.68 4.92-1.83 5.51-2.44 8.47-2.02 11.89 1.66l2.37 2.56 1.09-2.82c0.12-0.32 0.24-0.61 0.35-0.9 0.98-2.55 1.56-4.02 1.19-5.21-0.54-1.78-3.17-2.91-9.62-5.99-5.71-2.73-14.12-7.35-18.68-10.28l-8.3-5.32-1.95 2.43c-5.45 6.84-25.51 31.46-27.13 33.31-1.02 1.17-3.89 4.71-6.38 7.86l-4.52 5.72-2.62-1.89c-1.44-1.04-4.36-3.69-6.49-5.89l-3.86-3.99 3.02-3.84c1.66-2.11 10.5-13.23 19.66-24.71 9.15-11.48 16.47-21.38 16.26-22-1.06-3.19-4.35-0.72-16.73 12.57-7.32 7.87-17.17 18.29-21.89 23.17l-8.57 8.86-5.74-6.36c-3.16-3.5-5.75-7.2-5.76-8.21s2.68-4.64 5.98-8.08l6-6.25v-7.78c0-0.57 0-1.1 0.01-1.6 0.02-3.02 0.03-4.7-0.79-5.35-1.03-0.82-3.4 0.04-8.76 2-0.7 0.25-1.45 0.52-2.25 0.81-13.24 4.78-25.19 4.41-27.18-0.84-1.62-4.25-7.11-27.83-6.6-28.34 0.28-0.28 6.1 0.08 12.94 0.8 8.29 0.87 13.87 0.99 16.77 0.37l4.36-0.92-0.34-4.26c-0.18-2.34 0.2-7.45 0.86-11.36l1.2-7.11 11.02-11.87c6.06-6.54 11.55-11.88 12.2-11.88 0.66 0 1.93 1.46 2.84 3.25s2.93 5.5 4.49 8.25c6.27 11.02 12.23 22.36 12.23 23.26 0 0.53-2.28 1.23-5.07 1.56-6.14 0.73-11.5 3.84-12.34 7.17-1.05 4.17 3.46 20.51 5.66 20.51 0.54 0 4.93-3.6 9.75-8s9.09-8 9.49-8c1.53 0 12.01 10.39 12.01 11.91 0 1.09 0.95 1.6 3.02 1.63 3.93 0.04 17.13 9.21 15.55 10.79-0.59 0.59-1.07 1.57-1.07 2.17 0 2.55 30.24 18.48 35.15 18.52 1.29 0.01 6.6 1.36 11.8 3 7.81 2.46 11.15 2.98 19.25 2.98h9.8l0.01-2.75c0.01-7.79 4.91-15.68 11.9-19.16 1.97-0.98 7.64-2.58 12.59-3.54 18.5-3.59 26.93-7.3 36.34-15.97 3.58-3.3 9.46-14 10.61-19.32l0.06-0.24c-0.03 0.52 0.31 0.6 1.04 0.32 0.8-0.3 1.45 0.02 1.45 0.72s0.21 1.06 0.47 0.81c0.05-0.06 0.09-0.16 0.11-0.32 1.47 5.77 3.56 15.49 4.99 23.71l0.66 3.76-8.37 3.9c-12.6 5.88-31.37 11.92-41.9 13.48-7.99 1.19-9.73 1.79-11.67 4.05-2.57 2.99-3.03 6.55-0.86 6.55 0.79 0 1.73-0.92 2.08-2.04 0.49-1.55 1.18-1.88 2.82-1.38 1.19 0.37 2.65 1.04 3.23 1.51 0.58 0.46 2.83 0.35 5-0.24 23.25-6.4 27.44-7.81 27.44-9.22 0-0.98 15.14-6.37 25.61-9.12 1.92-0.51 2.24 0.13 3.68 7.22 1.37 6.74 1.39 7.92 0.14 8.88-1.92 1.49-1.83 2.73 1.01 14.65 8.22 34.58 10.56 44.91 10.56 46.7 0 1.54-2.14 3.1-9.04 6.56-4.98 2.5-9.42 4.32-9.87 4.04s-2.06-5.2-3.58-10.93-3.08-10.93-3.46-11.55c-0.72-1.17-11.05-2.82-11.05-1.77 0 0.33 0.66 3.12 1.46 6.21 0.81 3.08 1.19 7.04 0.86 8.79-2.34 12.27-13.71 19.82-25.2 16.72-5-1.34-11.87-7.21-13.77-11.75-2.75-6.55-1.12-16.27 3.61-21.56l2.83-3.17-5.15-5.58c-3.36-3.62-5.69-7.27-6.68-10.45-0.83-2.68-2.06-5.05-2.74-5.28-1.62-0.54-1.58 4.51 0.33 39.06 1.16 20.85 1.26 28.2 0.42 28.72-1.17 0.72-15.14 2.14-15.69 1.6-0.16-0.17-0.59-15.7-0.95-34.51l-0.66-34.21-3.06 0.3-3.07 0.3-2.8 33c-1.54 18.15-2.99 33.56-3.24 34.25zm24.5 79.25v20h-11.03c-8.98 0-11.14-0.28-11.62-1.53-0.32-0.84-0.09-12.43 0.51-25.75 0.61-13.32 1.4-31.06 1.76-39.41l0.65-15.19-12.88-0.31c-7.09-0.17-13.47-0.14-14.19 0.07-0.71 0.2 0.96 1.89 3.72 3.75 12.31 8.29 18.53 18.23 18.39 29.37-0.22 17.45-12.6 31.22-29.45 32.75-0.49 0.04-0.95 0.09-1.37 0.14-1.75 0.18-2.91 0.31-3.59-0.2-1.33-0.98-0.92-4.31 0.3-14.07 0.15-1.22 0.31-2.54 0.49-3.97 1.14-9.35 2.12-14.02 3.02-14.37 0.74-0.28 4.23 0.22 7.77 1.1 3.54 0.89 6.9 1.62 7.48 1.62 3.21 0-1.06-13.07-6.05-18.48-3.52-3.82-9.37-7.45-10.33-6.4-0.4 0.44-9.06 52.55-10.11 60.88-0.39 3.02-0.86 5.77-1.05 6.1-0.43 0.74-18.9-2.71-22.68-4.24-3.97-1.6-12.95-11.69-20.49-23.02-3.4-5.11-5.2-7.64-5.75-10.42-0.59-3.01 0.28-6.3 2.17-13.44 0.13-0.51 0.27-1.04 0.42-1.59l2.14-8.1 16.05-8.88c8.82-4.88 16.71-9.54 17.51-10.35 1.3-1.29-0.14-1.8-11.91-4.25-7.36-1.53-14.12-2.79-15.02-2.79-1.26-0.02-3.99 7.07-11.97 31.07l-10.33 31.1-6.53-0.68c-3.59-0.38-6.83-0.98-7.21-1.35-0.37-0.36-4.7-7.38-9.63-15.6l-8.95-14.93 2.3-8.37c1.27-4.61 1.85-8.22 1.3-8.04s-5.89 9.77-11.87 21.31c-8.67 16.73-11.24 20.9-12.67 20.63-3.59-0.69-22.3-11.54-22.3-12.93 0-1.27 3.47-8.14 14.51-28.73 14.04-26.18 21.57-41.68 21.04-43.35-0.93-2.92 0.43-5.15 3.12-5.15 1.36 0 3.4-0.5 4.55-1.12 3.59-1.92 14.86-2.83 22.25-1.8 8.21 1.15 15.16 4.14 25.78 11.1 7.94 5.2 8.67 6.21 6.5 9.11-1.14 1.52-1.82 1.37-7.97-1.74-7.12-3.6-15.44-5.22-20.79-4.05-4.56 1-2.62 2.46 9.01 6.78 24.52 9.1 49.13 14.42 77.94 16.83 14.94 1.25 25.26 0.81 33.56-1.42 8.21-2.21 12.14-2.17 12.74 0.14 0.39 1.48 2.13 2.02 9.18 2.88 6.83 0.83 9.25 1.56 11.28 3.42 1.69 1.56 2.72 1.96 3 1.17 1.59-4.44 4.65-6.07 22.96-12.23l18.84-6.34 3.91 1.89c2.15 1.03 4.27 2.55 4.72 3.38 0.44 0.83 3.77 9.83 7.4 20 6.96 19.54 8.11 22.69 13.99 38.25 2.03 5.37 3.47 10.32 3.21 11-0.26 0.69-2.45 1.84-4.85 2.55-2.41 0.72-6.18 2.15-8.37 3.18-2.73 1.27-4.38 1.55-5.19 0.87-0.66-0.55-5.79-14.8-11.4-31.67-5.61-16.88-10.32-30.83-10.47-31.01-0.69-0.82-16.81 4.53-18.58 6.17-1.53 1.42-1.9 2.88-1.67 6.5l0.3 4.66 7.33 0.2c9.15 0.25 14.87 3.23 18.68 9.72 5.63 9.62 4.04 20.28-4.09 27.45-8.92 7.84-20.05 7.47-28.96-0.97-2.96-2.81-3.17-2.86-8.5-1.76-6.83 1.4-12.57 0.02-17.36-4.18-1.85-1.63-3.64-2.96-3.98-2.96s-0.62 9-0.62 20zm48.92-136.38c0.23 0.21 1.96 0.38 3.85 0.38 2.58 0 3.31-0.36 2.89-1.44-0.3-0.79-1.06-3.38-1.68-5.75s-1.82-6.72-2.66-9.66c-0.65-2.29-0.81-3.7-1.59-4.34-1.11-0.9-3.47-0.28-10.28 1.52-1.17 0.32-2.49 0.66-3.95 1.04-8.78 2.29-9.01 2.43-9.31 5.5-0.35 3.46 2.55 8.38 6.01 10.24 1.14 0.61 5.27 1.33 9.18 1.61 3.92 0.28 7.31 0.69 7.54 0.9zm-196.9 61.63c-2.86 5.36-4.89 9.75-4.51 9.75 0.96 0 22.69-10.98 24.28-12.27 0.97-0.78-0.62-1.88-6.38-4.43-4.22-1.86-7.79-3.25-7.93-3.09-0.15 0.16-2.61 4.68-5.46 10.04zm59.2 41.47c2.32 2.37 4.68 4.15 5.25 3.96 1.08-0.36 4.11-15.43 3.27-16.28-0.6-0.59-12.74 6.42-12.74 7.36 0 0.37 1.9 2.6 4.22 4.96zm-46.84-18.93c0.51 0.71 1.25 0.94 1.64 0.5 1.09-1.21 4.36-14.25 3.73-14.87-0.3-0.31-2.86 0.62-5.69 2.05l-5.14 2.61 2.26 4.21c1.24 2.31 2.68 4.79 3.2 5.5zm135.62 1.95v6.49l3.92-3.36c2.96-2.55 3.93-4.15 4-6.56 0.1-3.85-0.75-4.49-4.82-3.68-3.09 0.62-3.1 0.65-3.1 7.11zm59.97-175.18c-0.32 0.24-0.7 1.06-1.2 2.47 0.37-1.26 0.82-2.28 1.14-2.48 0.02-0.01 0.04 0 0.06 0.01z" fill="#df176f"/>
 </g>
</svg>
