<?xml version="1.0" encoding="UTF-8"?>
<!-- Created with Inkscape (http://www.inkscape.org/) -->
<svg width="48mm" height="60mm" version="1.1" viewBox="0 0 48 60" xml:space="preserve" xmlns="http://www.w3.org/2000/svg"><g transform="matrix(.013593 0 0 .013593 -13.593 -6.5183)">
			
			<path d="m1268.8 1218.8h-268.81v-739.29c98.88 171.26 344.94 183.2 268.81 474.46z" fill="#1a1a1a"/><g fill="#fff"><path d="m1233.3 931.64c50.63-224.78-127.36-259.01-233.28-379.02v379.02z"/><polygon transform="matrix(.5 0 0 1 614.48 0)" points="771.05 971.51 771.05 1012.4 1229 1012.4 1229 971.51"/><polygon transform="matrix(.5 0 0 1 614.48 0)" points="771.05 1218.8 1229 1218.8 1229 1052.2 771.05 1052.2"/></g><g transform="matrix(-1 0 0 1 5531.1 3.0603e-6)"><path d="m1268.8 1218.8h-268.81v-739.29c98.88 171.26 344.94 183.2 268.81 474.46z" fill="#1a1a1a"/><g fill="#fff"><path d="m1233.3 931.64c50.63-224.78-127.36-259.01-233.28-379.02v379.02z"/><polygon transform="matrix(.5 0 0 1 614.48 0)" points="771.05 1012.4 1229 1012.4 1229 971.51 771.05 971.51"/><polygon transform="matrix(.5 0 0 1 614.48 0)" points="1229 1218.8 1229 1052.2 771.05 1052.2 771.05 1218.8"/></g></g>
		<path d="m1992.6 1803.7 382.25 220.7 382.26-220.7 382.25 220.7 382.26-220.7 382.25 662.08-382.25 220.7-382.26-220.7-382.25 220.7-382.26-220.7-382.25 220.7-382.26-220.7-764.51 441.39 764.51 441.39 382.26-220.7 382.25 220.7 382.26-220.7 382.25 220.7 382.26-220.7 764.51 441.39-764.51 441.39-382.26-220.69-382.25 220.69-382.26-220.69-382.25 220.69-764.51-441.39v1324.2l764.51-441.39 382.25 220.69 382.26-220.69 382.25 220.69 382.26-220.69 764.51 441.39" fill="none" stroke="#4d4d4d" stroke-linecap="round" stroke-miterlimit="0" stroke-width="73.565"/><path d="m2374.8 2024.4v441.39l-382.25 220.7v441.39l382.25 220.7v441.39l-382.25 220.69v441.39l382.25 220.69v441.39h764.51v-441.39l-382.25-220.69v-441.39l382.25-220.69v-441.39l-382.25-220.7v-441.39l382.25-220.7v-882.78l764.51 882.78-382.25 220.7v441.39l764.51 441.39-764.51 441.39v441.39" fill="none" stroke="#4d4d4d" stroke-linecap="round" stroke-miterlimit="0" stroke-width="73.565"/></g><path d="m0 12.5v48h8v-32l16-11.671 16 11.671v32h8v-48z" fill="#da714b" stroke="#800000" stroke-linecap="round" stroke-miterlimit="0"/><rect x="-5.0245e-7" y="10.5" width="48" height="2" fill="#f9f9f9" stroke="#1a1a1a" stroke-linecap="round" stroke-miterlimit="0"/></svg>
